<svg id="color" enable-background="new 0 0 24 24" height="512" viewBox="0 0 24 24" width="512" xmlns="http://www.w3.org/2000/svg"><path d="m21.25 24h-6.5c-1.517 0-2.75-1.233-2.75-2.75v-6.5c0-1.517 1.233-2.75 2.75-2.75h6.5c1.517 0 2.75 1.233 2.75 2.75v6.5c0 1.517-1.233 2.75-2.75 2.75z" fill="#4caf50"/><path d="m9.25 24h-6.5c-1.517 0-2.75-1.233-2.75-2.75v-6.5c0-1.517 1.233-2.75 2.75-2.75h6.5c1.517 0 2.75 1.233 2.75 2.75v6.5c0 1.517-1.233 2.75-2.75 2.75z" fill="#ffc107"/><path d="m15.5 12h-6.75c-1.517 0-2.75-1.233-2.75-2.75v-6.5c0-1.517 1.233-2.75 2.75-2.75h6.75c1.517 0 2.75 1.233 2.75 2.75v6.5c0 1.517-1.233 2.75-2.75 2.75z" fill="#2196f3"/><g fill="#fff"><path d="m12 9c-.414 0-.75-.336-.75-.75v-4.5c0-.414.336-.75.75-.75s.75.336.75.75v4.5c0 .414-.336.75-.75.75z"/><path d="m7.25 21h-2.5c-.414 0-.75-.336-.75-.75v-1.25c0-.965.785-1.75 1.75-1.75h.5c.138 0 .25-.112.25-.25v-.25c0-.138-.112-.25-.25-.25h-1.5c-.414 0-.75-.336-.75-.75s.336-.75.75-.75h1.5c.965 0 1.75.785 1.75 1.75v.25c0 .965-.785 1.75-1.75 1.75h-.5c-.138 0-.25.112-.25.25v.5h1.75c.414 0 .75.336.75.75s-.336.75-.75.75z"/><path d="m18.25 21h-1.5c-.414 0-.75-.336-.75-.75s.336-.75.75-.75h1.5c.138 0 .25-.112.25-.25v-.25c0-.138-.112-.25-.25-.25h-1.5c-.414 0-.75-.336-.75-.75s.336-.75.75-.75h1.5c.965 0 1.75.785 1.75 1.75v.25c0 .965-.785 1.75-1.75 1.75z"/><path d="m18.25 18.75h-1.5c-.414 0-.75-.336-.75-.75s.336-.75.75-.75h1.5c.138 0 .25-.112.25-.25v-.25c0-.138-.112-.25-.25-.25h-1.5c-.414 0-.75-.336-.75-.75s.336-.75.75-.75h1.5c.965 0 1.75.785 1.75 1.75v.25c0 .965-.785 1.75-1.75 1.75z"/></g><path d="m4.75 16.5c-.414 0-.75-.336-.75-.75s.336-.75.75-.75h1.5c.965 0 1.75.785 1.75 1.75v.25c0 .965-.785 1.75-1.75 1.75h-.5c-.138 0-.25.112-.25.25v.5h1.75c.414 0 .75.336.75.75s-.336.75-.75.75h-2.5c-.414 0-.75-.336-.75-.75v-1.25c0-.965.785-1.75 1.75-1.75h.5c.138 0 .25-.112.25-.25v-.25c0-.138-.112-.25-.25-.25zm4.5-4.5h-6.5c-1.517 0-2.75 1.233-2.75 2.75v6.5c0 1.517 1.233 2.75 2.75 2.75h6.5c1.517 0 2.75-1.233 2.75-2.75v-6.5c0-1.517-1.233-2.75-2.75-2.75z" fill="#e3ac0a"/><path d="m12 0h-3.25c-1.517 0-2.75 1.233-2.75 2.75v6.5c0 1.517 1.233 2.75 2.75 2.75h3.25v-3c-.414 0-.75-.336-.75-.75v-4.5c0-.414.336-.75.75-.75z" fill="#2187d8"/><path d="m12 3c-.414 0-.75.336-.75.75v4.5c0 .414.336.75.75.75z" fill="#e3e2e2"/><path d="m6.25 15h-1.5c-.414 0-.75.336-.75.75s.336.75.75.75h1.5c.138 0 .25.112.25.25v.25c0 .138-.112.25-.25.25h-.5c-.965 0-1.75.785-1.75 1.75v1.25c0 .414.336.75.75.75h2.5c.414 0 .75-.336.75-.75s-.336-.75-.75-.75h-1.75v-.5c0-.138.112-.25.25-.25h.5c.965 0 1.75-.785 1.75-1.75v-.25c0-.965-.785-1.75-1.75-1.75z" fill="#e3e2e2"/></svg>